<mxfile host="65bd71144e">
    <diagram id="BebB0wlk33uMI0dFuVlB" name="Page-1">
        <mxGraphModel dx="653" dy="583" grid="1" gridSize="10" guides="1" tooltips="1" connect="1" arrows="1" fold="1" page="1" pageScale="1" pageWidth="850" pageHeight="1100" math="0" shadow="0">
            <root>
                <mxCell id="0"/>
                <mxCell id="1" parent="0"/>
                <mxCell id="9" style="edgeStyle=none;html=1;entryX=0;entryY=0.5;entryDx=0;entryDy=0;" edge="1" parent="1" source="2" target="7">
                    <mxGeometry relative="1" as="geometry"/>
                </mxCell>
                <mxCell id="2" value="" style="whiteSpace=wrap;html=1;aspect=fixed;" vertex="1" parent="1">
                    <mxGeometry x="200" y="70" width="200" height="200" as="geometry"/>
                </mxCell>
                <mxCell id="3" value="" style="triangle;whiteSpace=wrap;html=1;rotation=-90;" vertex="1" parent="1">
                    <mxGeometry x="270" y="260" width="60" height="80" as="geometry"/>
                </mxCell>
                <mxCell id="4" value="" style="whiteSpace=wrap;html=1;aspect=fixed;" vertex="1" parent="1">
                    <mxGeometry x="225" y="95" width="150" height="150" as="geometry"/>
                </mxCell>
                <mxCell id="5" value="Browser" style="text;html=1;strokeColor=none;fillColor=none;align=center;verticalAlign=middle;whiteSpace=wrap;rounded=0;" vertex="1" parent="1">
                    <mxGeometry x="250" y="70" width="60" height="30" as="geometry"/>
                </mxCell>
                <mxCell id="6" value="Youtube" style="text;html=1;strokeColor=none;fillColor=none;align=center;verticalAlign=middle;whiteSpace=wrap;rounded=0;" vertex="1" parent="1">
                    <mxGeometry x="260" y="95" width="60" height="30" as="geometry"/>
                </mxCell>
                <mxCell id="10" style="edgeStyle=none;html=1;entryX=1;entryY=0.75;entryDx=0;entryDy=0;" edge="1" parent="1" source="7" target="2">
                    <mxGeometry relative="1" as="geometry"/>
                </mxCell>
                <mxCell id="7" value="" style="whiteSpace=wrap;html=1;aspect=fixed;" vertex="1" parent="1">
                    <mxGeometry x="570" y="112.5" width="115" height="115" as="geometry"/>
                </mxCell>
                <mxCell id="8" value="SERVER" style="text;html=1;strokeColor=none;fillColor=none;align=center;verticalAlign=middle;whiteSpace=wrap;rounded=0;" vertex="1" parent="1">
                    <mxGeometry x="600" y="140" width="60" height="30" as="geometry"/>
                </mxCell>
                <mxCell id="11" value="HTML&lt;br&gt;CSS&lt;br&gt;JS&lt;br&gt;IMAGINI&lt;br&gt;TEXT&lt;br&gt;VIDEO&amp;nbsp;&lt;br&gt;AUDIO&lt;br&gt;&lt;br&gt;&lt;br&gt;erncoded http&lt;br&gt;text _ codat" style="text;html=1;strokeColor=none;fillColor=none;align=center;verticalAlign=middle;whiteSpace=wrap;rounded=0;" vertex="1" parent="1">
                    <mxGeometry x="470" y="227.5" width="120" height="80" as="geometry"/>
                </mxCell>
                <mxCell id="12" value="Actor" style="shape=umlActor;verticalLabelPosition=bottom;verticalAlign=top;html=1;outlineConnect=0;" vertex="1" parent="1">
                    <mxGeometry x="720" y="185" width="30" height="60" as="geometry"/>
                </mxCell>
                <mxCell id="15" value="1980" style="text;html=1;strokeColor=none;fillColor=none;align=center;verticalAlign=middle;whiteSpace=wrap;rounded=0;" vertex="1" parent="1">
                    <mxGeometry x="170" y="20" width="60" height="30" as="geometry"/>
                </mxCell>
                <mxCell id="16" value="" style="whiteSpace=wrap;html=1;aspect=fixed;" vertex="1" parent="1">
                    <mxGeometry x="195" y="380" width="200" height="200" as="geometry"/>
                </mxCell>
                <mxCell id="17" value="" style="triangle;whiteSpace=wrap;html=1;rotation=-90;" vertex="1" parent="1">
                    <mxGeometry x="265" y="570" width="60" height="80" as="geometry"/>
                </mxCell>
                <mxCell id="18" value="" style="whiteSpace=wrap;html=1;aspect=fixed;" vertex="1" parent="1">
                    <mxGeometry x="220" y="405" width="150" height="150" as="geometry"/>
                </mxCell>
                <mxCell id="19" value="Browser" style="text;html=1;strokeColor=none;fillColor=none;align=center;verticalAlign=middle;whiteSpace=wrap;rounded=0;" vertex="1" parent="1">
                    <mxGeometry x="245" y="380" width="60" height="30" as="geometry"/>
                </mxCell>
                <mxCell id="20" value="YoutubIl" style="text;html=1;strokeColor=none;fillColor=none;align=center;verticalAlign=middle;whiteSpace=wrap;rounded=0;" vertex="1" parent="1">
                    <mxGeometry x="255" y="405" width="60" height="30" as="geometry"/>
                </mxCell>
                <mxCell id="21" value="1980" style="text;html=1;strokeColor=none;fillColor=none;align=center;verticalAlign=middle;whiteSpace=wrap;rounded=0;" vertex="1" parent="1">
                    <mxGeometry x="165" y="330" width="60" height="30" as="geometry"/>
                </mxCell>
                <mxCell id="22" value="" style="rounded=0;whiteSpace=wrap;html=1;" vertex="1" parent="1">
                    <mxGeometry x="235" y="480" width="120" height="60" as="geometry"/>
                </mxCell>
                <mxCell id="23" value="VIRUS" style="text;html=1;strokeColor=none;fillColor=none;align=center;verticalAlign=middle;whiteSpace=wrap;rounded=0;" vertex="1" parent="1">
                    <mxGeometry x="260" y="495" width="60" height="30" as="geometry"/>
                </mxCell>
                <mxCell id="24" value="" style="whiteSpace=wrap;html=1;aspect=fixed;" vertex="1" parent="1">
                    <mxGeometry x="960" y="125" width="215" height="215" as="geometry"/>
                </mxCell>
                <mxCell id="25" value="" style="whiteSpace=wrap;html=1;aspect=fixed;" vertex="1" parent="1">
                    <mxGeometry x="1180" y="125" width="215" height="215" as="geometry"/>
                </mxCell>
                <mxCell id="26" value="&lt;span style=&quot;font-size: 24px;&quot;&gt;FE&lt;br&gt;&lt;br&gt;FRONT END&lt;br&gt;&lt;/span&gt;" style="text;html=1;strokeColor=none;fillColor=none;align=center;verticalAlign=middle;whiteSpace=wrap;rounded=0;" vertex="1" parent="1">
                    <mxGeometry x="1050" y="217.5" width="60" height="30" as="geometry"/>
                </mxCell>
                <mxCell id="27" value="&lt;font style=&quot;font-size: 24px;&quot;&gt;BE&lt;br&gt;&lt;br&gt;BACKEND&lt;br&gt;&lt;/font&gt;" style="text;html=1;strokeColor=none;fillColor=none;align=center;verticalAlign=middle;whiteSpace=wrap;rounded=0;" vertex="1" parent="1">
                    <mxGeometry x="1257.5" y="217.5" width="60" height="30" as="geometry"/>
                </mxCell>
                <mxCell id="28" value="DESIGN&lt;br&gt;FE DEVELOPERI -- IMPLENTEAZA INTERFATA DESENATA DE DESIGNERI" style="text;html=1;strokeColor=none;fillColor=none;align=center;verticalAlign=middle;whiteSpace=wrap;rounded=0;fontSize=24;" vertex="1" parent="1">
                    <mxGeometry x="850" y="365" width="120" height="110" as="geometry"/>
                </mxCell>
                <mxCell id="29" value="ALGORTIMI&lt;br&gt;LUCRU CU BAZE DE DATE&lt;br&gt;MICROSERVICII&lt;br&gt;CLOUD&lt;br&gt;" style="text;html=1;strokeColor=none;fillColor=none;align=center;verticalAlign=middle;whiteSpace=wrap;rounded=0;fontSize=24;" vertex="1" parent="1">
                    <mxGeometry x="1440" y="155" width="210" height="265" as="geometry"/>
                </mxCell>
                <mxCell id="44" style="edgeStyle=none;html=1;entryX=0;entryY=0.652;entryDx=0;entryDy=0;entryPerimeter=0;fontSize=24;" edge="1" parent="1" source="30" target="38">
                    <mxGeometry relative="1" as="geometry"/>
                </mxCell>
                <mxCell id="30" value="" style="whiteSpace=wrap;html=1;aspect=fixed;" vertex="1" parent="1">
                    <mxGeometry x="970" y="660" width="200" height="200" as="geometry"/>
                </mxCell>
                <mxCell id="31" value="" style="triangle;whiteSpace=wrap;html=1;rotation=-90;" vertex="1" parent="1">
                    <mxGeometry x="1040" y="850" width="60" height="80" as="geometry"/>
                </mxCell>
                <mxCell id="32" value="" style="whiteSpace=wrap;html=1;aspect=fixed;" vertex="1" parent="1">
                    <mxGeometry x="995" y="685" width="150" height="150" as="geometry"/>
                </mxCell>
                <mxCell id="33" value="Browser" style="text;html=1;strokeColor=none;fillColor=none;align=center;verticalAlign=middle;whiteSpace=wrap;rounded=0;" vertex="1" parent="1">
                    <mxGeometry x="1020" y="660" width="60" height="30" as="geometry"/>
                </mxCell>
                <mxCell id="34" value="YoutubIl" style="text;html=1;strokeColor=none;fillColor=none;align=center;verticalAlign=middle;whiteSpace=wrap;rounded=0;" vertex="1" parent="1">
                    <mxGeometry x="1030" y="685" width="60" height="30" as="geometry"/>
                </mxCell>
                <mxCell id="35" value="2005" style="text;html=1;strokeColor=none;fillColor=none;align=center;verticalAlign=middle;whiteSpace=wrap;rounded=0;" vertex="1" parent="1">
                    <mxGeometry x="940" y="610" width="60" height="30" as="geometry"/>
                </mxCell>
                <mxCell id="43" style="edgeStyle=none;html=1;fontSize=24;" edge="1" parent="1" source="38" target="30">
                    <mxGeometry relative="1" as="geometry"/>
                </mxCell>
                <mxCell id="38" value="" style="whiteSpace=wrap;html=1;aspect=fixed;" vertex="1" parent="1">
                    <mxGeometry x="1330" y="685" width="115" height="115" as="geometry"/>
                </mxCell>
                <mxCell id="39" value="SERVER" style="text;html=1;strokeColor=none;fillColor=none;align=center;verticalAlign=middle;whiteSpace=wrap;rounded=0;" vertex="1" parent="1">
                    <mxGeometry x="1360" y="712.5" width="60" height="30" as="geometry"/>
                </mxCell>
                <mxCell id="40" value="HTML&lt;br&gt;CSS&lt;br&gt;JS&lt;br&gt;IMAGINI&lt;br&gt;TEXT&lt;br&gt;VIDEO&amp;nbsp;&lt;br&gt;AUDIO&lt;br&gt;&lt;br&gt;&lt;br&gt;erncoded http&lt;br&gt;text _ codat" style="text;html=1;strokeColor=none;fillColor=none;align=center;verticalAlign=middle;whiteSpace=wrap;rounded=0;" vertex="1" parent="1">
                    <mxGeometry x="1230" y="800" width="120" height="80" as="geometry"/>
                </mxCell>
                <mxCell id="45" value="VIDEO" style="whiteSpace=wrap;html=1;aspect=fixed;fontSize=24;" vertex="1" parent="1">
                    <mxGeometry x="1010" y="715" width="55" height="55" as="geometry"/>
                </mxCell>
                <mxCell id="50" value="" style="whiteSpace=wrap;html=1;aspect=fixed;" vertex="1" parent="1">
                    <mxGeometry x="975" y="960" width="200" height="200" as="geometry"/>
                </mxCell>
                <mxCell id="51" value="" style="triangle;whiteSpace=wrap;html=1;rotation=-90;" vertex="1" parent="1">
                    <mxGeometry x="1045" y="1150" width="60" height="80" as="geometry"/>
                </mxCell>
                <mxCell id="52" value="" style="whiteSpace=wrap;html=1;aspect=fixed;" vertex="1" parent="1">
                    <mxGeometry x="1000" y="985" width="145" height="145" as="geometry"/>
                </mxCell>
                <mxCell id="53" value="Browser" style="text;html=1;strokeColor=none;fillColor=none;align=center;verticalAlign=middle;whiteSpace=wrap;rounded=0;" vertex="1" parent="1">
                    <mxGeometry x="1025" y="960" width="60" height="30" as="geometry"/>
                </mxCell>
                <mxCell id="54" value="YoutubIl" style="text;html=1;strokeColor=none;fillColor=none;align=center;verticalAlign=middle;whiteSpace=wrap;rounded=0;" vertex="1" parent="1">
                    <mxGeometry x="1035" y="985" width="60" height="30" as="geometry"/>
                </mxCell>
                <mxCell id="55" value="2005" style="text;html=1;strokeColor=none;fillColor=none;align=center;verticalAlign=middle;whiteSpace=wrap;rounded=0;" vertex="1" parent="1">
                    <mxGeometry x="945" y="910" width="60" height="30" as="geometry"/>
                </mxCell>
                <mxCell id="56" value="VIDEO" style="whiteSpace=wrap;html=1;aspect=fixed;fontSize=24;" vertex="1" parent="1">
                    <mxGeometry x="1015" y="1015" width="55" height="55" as="geometry"/>
                </mxCell>
                <mxCell id="57" value="" style="whiteSpace=wrap;html=1;aspect=fixed;" vertex="1" parent="1">
                    <mxGeometry x="82.5" y="1230" width="215" height="215" as="geometry"/>
                </mxCell>
                <mxCell id="75" style="edgeStyle=none;html=1;entryX=0;entryY=1;entryDx=0;entryDy=-15;entryPerimeter=0;fontSize=24;" edge="1" parent="1" source="58" target="67">
                    <mxGeometry relative="1" as="geometry"/>
                </mxCell>
                <mxCell id="76" style="edgeStyle=none;html=1;exitX=1;exitY=0.75;exitDx=0;exitDy=0;fontSize=24;" edge="1" parent="1" source="58" target="68">
                    <mxGeometry relative="1" as="geometry"/>
                </mxCell>
                <mxCell id="58" value="" style="whiteSpace=wrap;html=1;aspect=fixed;" vertex="1" parent="1">
                    <mxGeometry x="302.5" y="1230" width="215" height="215" as="geometry"/>
                </mxCell>
                <mxCell id="59" value="&lt;span style=&quot;font-size: 24px;&quot;&gt;FE&lt;br&gt;&lt;br&gt;&lt;br&gt;&lt;/span&gt;" style="text;html=1;strokeColor=none;fillColor=none;align=center;verticalAlign=middle;whiteSpace=wrap;rounded=0;" vertex="1" parent="1">
                    <mxGeometry x="172.5" y="1322.5" width="60" height="30" as="geometry"/>
                </mxCell>
                <mxCell id="60" value="&lt;font style=&quot;font-size: 24px;&quot;&gt;BE&lt;br&gt;1&lt;br&gt;&lt;/font&gt;" style="text;html=1;strokeColor=none;fillColor=none;align=center;verticalAlign=middle;whiteSpace=wrap;rounded=0;" vertex="1" parent="1">
                    <mxGeometry x="380" y="1322.5" width="60" height="30" as="geometry"/>
                </mxCell>
                <mxCell id="77" style="edgeStyle=none;html=1;fontSize=24;" edge="1" parent="1" source="61" target="68">
                    <mxGeometry relative="1" as="geometry"/>
                </mxCell>
                <mxCell id="78" style="edgeStyle=none;html=1;exitX=1;exitY=0.25;exitDx=0;exitDy=0;entryX=0;entryY=1;entryDx=0;entryDy=-15;entryPerimeter=0;fontSize=24;" edge="1" parent="1" source="61" target="67">
                    <mxGeometry relative="1" as="geometry"/>
                </mxCell>
                <mxCell id="61" value="" style="whiteSpace=wrap;html=1;aspect=fixed;" vertex="1" parent="1">
                    <mxGeometry x="310" y="1445" width="215" height="215" as="geometry"/>
                </mxCell>
                <mxCell id="62" value="&lt;font style=&quot;font-size: 24px;&quot;&gt;be2&lt;br&gt;&lt;/font&gt;" style="text;html=1;strokeColor=none;fillColor=none;align=center;verticalAlign=middle;whiteSpace=wrap;rounded=0;" vertex="1" parent="1">
                    <mxGeometry x="370" y="1510" width="60" height="30" as="geometry"/>
                </mxCell>
                <mxCell id="63" value="" style="whiteSpace=wrap;html=1;aspect=fixed;" vertex="1" parent="1">
                    <mxGeometry x="310" y="1650" width="215" height="215" as="geometry"/>
                </mxCell>
                <mxCell id="64" value="&lt;font style=&quot;font-size: 24px;&quot;&gt;BE&lt;br&gt;3&lt;br&gt;&lt;/font&gt;" style="text;html=1;strokeColor=none;fillColor=none;align=center;verticalAlign=middle;whiteSpace=wrap;rounded=0;" vertex="1" parent="1">
                    <mxGeometry x="370" y="1715" width="60" height="30" as="geometry"/>
                </mxCell>
                <mxCell id="65" value="" style="whiteSpace=wrap;html=1;aspect=fixed;" vertex="1" parent="1">
                    <mxGeometry x="310" y="1865" width="215" height="215" as="geometry"/>
                </mxCell>
                <mxCell id="66" value="&lt;font style=&quot;font-size: 24px;&quot;&gt;BE&lt;br&gt;&lt;br&gt;&lt;/font&gt;" style="text;html=1;strokeColor=none;fillColor=none;align=center;verticalAlign=middle;whiteSpace=wrap;rounded=0;" vertex="1" parent="1">
                    <mxGeometry x="375" y="1945" width="60" height="30" as="geometry"/>
                </mxCell>
                <mxCell id="67" value="" style="shape=cylinder3;whiteSpace=wrap;html=1;boundedLbl=1;backgroundOutline=1;size=15;fontSize=24;" vertex="1" parent="1">
                    <mxGeometry x="590" y="1270" width="60" height="80" as="geometry"/>
                </mxCell>
                <mxCell id="68" value="" style="shape=cylinder3;whiteSpace=wrap;html=1;boundedLbl=1;backgroundOutline=1;size=15;fontSize=24;" vertex="1" parent="1">
                    <mxGeometry x="590" y="1480" width="60" height="80" as="geometry"/>
                </mxCell>
                <mxCell id="69" value="" style="shape=cylinder3;whiteSpace=wrap;html=1;boundedLbl=1;backgroundOutline=1;size=15;fontSize=24;" vertex="1" parent="1">
                    <mxGeometry x="580" y="1665" width="60" height="80" as="geometry"/>
                </mxCell>
                <mxCell id="70" value="" style="shape=cylinder3;whiteSpace=wrap;html=1;boundedLbl=1;backgroundOutline=1;size=15;fontSize=24;" vertex="1" parent="1">
                    <mxGeometry x="730" y="1270" width="60" height="80" as="geometry"/>
                </mxCell>
                <mxCell id="71" value="" style="shape=cylinder3;whiteSpace=wrap;html=1;boundedLbl=1;backgroundOutline=1;size=15;fontSize=24;" vertex="1" parent="1">
                    <mxGeometry x="730" y="1470" width="60" height="80" as="geometry"/>
                </mxCell>
                <mxCell id="72" value="" style="shape=cylinder3;whiteSpace=wrap;html=1;boundedLbl=1;backgroundOutline=1;size=15;fontSize=24;" vertex="1" parent="1">
                    <mxGeometry x="730" y="1665" width="60" height="80" as="geometry"/>
                </mxCell>
                <mxCell id="73" value="l1" style="text;html=1;strokeColor=none;fillColor=none;align=center;verticalAlign=middle;whiteSpace=wrap;rounded=0;fontSize=24;" vertex="1" parent="1">
                    <mxGeometry x="590" y="1200" width="60" height="30" as="geometry"/>
                </mxCell>
                <mxCell id="74" value="L2" style="text;html=1;strokeColor=none;fillColor=none;align=center;verticalAlign=middle;whiteSpace=wrap;rounded=0;fontSize=24;" vertex="1" parent="1">
                    <mxGeometry x="710" y="1210" width="60" height="30" as="geometry"/>
                </mxCell>
                <mxCell id="79" value="" style="ellipse;shape=cloud;whiteSpace=wrap;html=1;fontSize=24;" vertex="1" parent="1">
                    <mxGeometry x="305" y="2100" width="120" height="80" as="geometry"/>
                </mxCell>
                <mxCell id="80" value="" style="whiteSpace=wrap;html=1;aspect=fixed;" vertex="1" parent="1">
                    <mxGeometry x="302.5" y="1015" width="215" height="215" as="geometry"/>
                </mxCell>
                <mxCell id="82" value="" style="edgeStyle=none;html=1;fontSize=24;" edge="1" parent="1" source="81" target="60">
                    <mxGeometry relative="1" as="geometry"/>
                </mxCell>
                <mxCell id="81" value="&lt;font style=&quot;font-size: 24px;&quot;&gt;BE&lt;br&gt;1&lt;br&gt;&lt;/font&gt;" style="text;html=1;strokeColor=none;fillColor=none;align=center;verticalAlign=middle;whiteSpace=wrap;rounded=0;" vertex="1" parent="1">
                    <mxGeometry x="380" y="991.25" width="60" height="262.5" as="geometry"/>
                </mxCell>
                <mxCell id="83" value="L2 &amp;lt;&amp;lt; L1&lt;br&gt;CA SPATIUI&lt;br&gt;&lt;br&gt;DAR AU ACELEASI DATE." style="text;html=1;strokeColor=none;fillColor=none;align=center;verticalAlign=middle;whiteSpace=wrap;rounded=0;fontSize=24;" vertex="1" parent="1">
                    <mxGeometry x="1045" y="1352.5" width="60" height="30" as="geometry"/>
                </mxCell>
                <mxCell id="84" value="Manuel" style="text;html=1;align=center;verticalAlign=middle;resizable=0;points=[];autosize=1;strokeColor=none;fillColor=none;fontSize=24;" vertex="1" parent="1">
                    <mxGeometry x="1200" y="1720" width="100" height="40" as="geometry"/>
                </mxCell>
                <mxCell id="85" value="askme" style="text;html=1;align=center;verticalAlign=middle;resizable=0;points=[];autosize=1;strokeColor=none;fillColor=none;fontSize=24;" vertex="1" parent="1">
                    <mxGeometry x="1180" y="1830" width="90" height="40" as="geometry"/>
                </mxCell>
                <mxCell id="86" value="1j3" style="text;html=1;align=center;verticalAlign=middle;resizable=0;points=[];autosize=1;strokeColor=none;fillColor=none;fontSize=24;" vertex="1" parent="1">
                    <mxGeometry x="1225" y="1945" width="60" height="40" as="geometry"/>
                </mxCell>
                <mxCell id="87" value="" style="rounded=0;whiteSpace=wrap;html=1;fontSize=24;" vertex="1" parent="1">
                    <mxGeometry x="2180" y="125" width="120" height="60" as="geometry"/>
                </mxCell>
                <mxCell id="88" value="1980" style="text;html=1;strokeColor=none;fillColor=none;align=center;verticalAlign=middle;whiteSpace=wrap;rounded=0;fontSize=24;" vertex="1" parent="1">
                    <mxGeometry x="2190" y="140" width="60" height="30" as="geometry"/>
                </mxCell>
                <mxCell id="89" value="" style="rounded=0;whiteSpace=wrap;html=1;fontSize=24;" vertex="1" parent="1">
                    <mxGeometry x="2210" y="820" width="120" height="60" as="geometry"/>
                </mxCell>
                <mxCell id="90" value="2005" style="text;html=1;strokeColor=none;fillColor=none;align=center;verticalAlign=middle;whiteSpace=wrap;rounded=0;fontSize=24;" vertex="1" parent="1">
                    <mxGeometry x="2220" y="835" width="60" height="30" as="geometry"/>
                </mxCell>
                <mxCell id="91" value="" style="rounded=0;whiteSpace=wrap;html=1;fontSize=24;" vertex="1" parent="1">
                    <mxGeometry x="2180" y="237.5" width="120" height="60" as="geometry"/>
                </mxCell>
                <mxCell id="92" value="SHISH" style="text;html=1;strokeColor=none;fillColor=none;align=center;verticalAlign=middle;whiteSpace=wrap;rounded=0;fontSize=24;" vertex="1" parent="1">
                    <mxGeometry x="2190" y="252.5" width="60" height="30" as="geometry"/>
                </mxCell>
                <mxCell id="96" style="edgeStyle=none;html=1;fontSize=24;" edge="1" parent="1" source="93" target="94">
                    <mxGeometry relative="1" as="geometry"/>
                </mxCell>
                <mxCell id="93" value="Actor" style="shape=umlActor;verticalLabelPosition=bottom;verticalAlign=top;html=1;outlineConnect=0;fontSize=24;" vertex="1" parent="1">
                    <mxGeometry x="1900" y="350" width="80" height="130" as="geometry"/>
                </mxCell>
                <mxCell id="94" value="" style="whiteSpace=wrap;html=1;aspect=fixed;fontSize=24;" vertex="1" parent="1">
                    <mxGeometry x="2210" y="365" width="80" height="80" as="geometry"/>
                </mxCell>
                <mxCell id="95" value="Actor" style="shape=umlActor;verticalLabelPosition=bottom;verticalAlign=top;html=1;outlineConnect=0;fontSize=24;" vertex="1" parent="1">
                    <mxGeometry x="2330" y="410" width="30" height="60" as="geometry"/>
                </mxCell>
                <mxCell id="98" value="" style="rounded=0;whiteSpace=wrap;html=1;fontSize=24;" vertex="1" parent="1">
                    <mxGeometry x="2210" y="895" width="120" height="60" as="geometry"/>
                </mxCell>
                <mxCell id="99" value="FAIN" style="text;html=1;strokeColor=none;fillColor=none;align=center;verticalAlign=middle;whiteSpace=wrap;rounded=0;fontSize=24;" vertex="1" parent="1">
                    <mxGeometry x="2230" y="910" width="60" height="30" as="geometry"/>
                </mxCell>
                <mxCell id="107" style="edgeStyle=none;html=1;fontSize=24;" edge="1" parent="1" source="100" target="104">
                    <mxGeometry relative="1" as="geometry"/>
                </mxCell>
                <mxCell id="100" value="Actor" style="shape=umlActor;verticalLabelPosition=bottom;verticalAlign=top;html=1;outlineConnect=0;fontSize=24;" vertex="1" parent="1">
                    <mxGeometry x="1905" y="1027.5" width="25" height="60" as="geometry"/>
                </mxCell>
                <mxCell id="101" value="" style="rounded=0;whiteSpace=wrap;html=1;fontSize=24;" vertex="1" parent="1">
                    <mxGeometry x="1860" y="1110" width="120" height="60" as="geometry"/>
                </mxCell>
                <mxCell id="102" value="" style="rounded=0;whiteSpace=wrap;html=1;fontSize=24;" vertex="1" parent="1">
                    <mxGeometry x="2420" y="1120" width="120" height="60" as="geometry"/>
                </mxCell>
                <mxCell id="109" style="edgeStyle=none;html=1;fontSize=24;" edge="1" parent="1" source="103" target="104">
                    <mxGeometry relative="1" as="geometry"/>
                </mxCell>
                <mxCell id="103" value="Actor" style="shape=umlActor;verticalLabelPosition=bottom;verticalAlign=top;html=1;outlineConnect=0;fontSize=24;" vertex="1" parent="1">
                    <mxGeometry x="2450" y="1050" width="30" height="60" as="geometry"/>
                </mxCell>
                <mxCell id="108" style="edgeStyle=none;html=1;entryX=0.5;entryY=0.5;entryDx=0;entryDy=0;entryPerimeter=0;fontSize=24;" edge="1" parent="1" source="104" target="103">
                    <mxGeometry relative="1" as="geometry"/>
                </mxCell>
                <mxCell id="110" style="edgeStyle=none;html=1;fontSize=24;" edge="1" parent="1" source="104" target="100">
                    <mxGeometry relative="1" as="geometry"/>
                </mxCell>
                <mxCell id="104" value="Actor" style="shape=umlActor;verticalLabelPosition=bottom;verticalAlign=top;html=1;outlineConnect=0;fontSize=24;" vertex="1" parent="1">
                    <mxGeometry x="2190" y="1082.5" width="30" height="60" as="geometry"/>
                </mxCell>
                <mxCell id="105" value="" style="rounded=0;whiteSpace=wrap;html=1;fontSize=24;" vertex="1" parent="1">
                    <mxGeometry x="1905" y="1127.5" width="50" height="20" as="geometry"/>
                </mxCell>
                <mxCell id="106" value="MENIU" style="text;html=1;strokeColor=none;fillColor=none;align=center;verticalAlign=middle;whiteSpace=wrap;rounded=0;fontSize=24;" vertex="1" parent="1">
                    <mxGeometry x="1905" y="1132.5" width="50" height="10" as="geometry"/>
                </mxCell>
                <mxCell id="111" value="c" style="text;html=1;strokeColor=none;fillColor=none;align=center;verticalAlign=middle;whiteSpace=wrap;rounded=0;fontSize=24;" vertex="1" parent="1">
                    <mxGeometry x="1900" y="570" width="60" height="30" as="geometry"/>
                </mxCell>
                <mxCell id="112" value="S" style="text;html=1;strokeColor=none;fillColor=none;align=center;verticalAlign=middle;whiteSpace=wrap;rounded=0;fontSize=24;" vertex="1" parent="1">
                    <mxGeometry x="2315" y="555" width="60" height="30" as="geometry"/>
                </mxCell>
                <mxCell id="113" value="c" style="text;html=1;strokeColor=none;fillColor=none;align=center;verticalAlign=middle;whiteSpace=wrap;rounded=0;fontSize=24;" vertex="1" parent="1">
                    <mxGeometry x="1967.5" y="1015" width="60" height="30" as="geometry"/>
                </mxCell>
                <mxCell id="114" value="S" style="text;html=1;strokeColor=none;fillColor=none;align=center;verticalAlign=middle;whiteSpace=wrap;rounded=0;fontSize=24;" vertex="1" parent="1">
                    <mxGeometry x="2382.5" y="1000" width="60" height="30" as="geometry"/>
                </mxCell>
                <mxCell id="116" value="API" style="text;html=1;strokeColor=none;fillColor=none;align=center;verticalAlign=middle;whiteSpace=wrap;rounded=0;fontSize=24;" vertex="1" parent="1">
                    <mxGeometry x="2150" y="1027.5" width="60" height="30" as="geometry"/>
                </mxCell>
                <mxCell id="118" value="" style="whiteSpace=wrap;html=1;aspect=fixed;fontSize=24;" vertex="1" parent="1">
                    <mxGeometry x="1800" y="2430" width="390" height="390" as="geometry"/>
                </mxCell>
                <mxCell id="119" value="index.html" style="text;html=1;strokeColor=none;fillColor=none;align=center;verticalAlign=middle;whiteSpace=wrap;rounded=0;fontSize=24;" vertex="1" parent="1">
                    <mxGeometry x="1955" y="2350" width="60" height="30" as="geometry"/>
                </mxCell>
                <mxCell id="121" value="&amp;lt;html&amp;gt;&lt;br&gt;&amp;lt;head&amp;gt;&lt;br&gt;&amp;lt;/head&amp;gt;&lt;br&gt;&amp;lt;body&amp;gt;&lt;br&gt;&amp;lt;/body&amp;gt;&lt;br&gt;&amp;lt;/html&amp;gt;" style="text;html=1;strokeColor=none;fillColor=none;align=center;verticalAlign=middle;whiteSpace=wrap;rounded=0;fontSize=24;" vertex="1" parent="1">
                    <mxGeometry x="1840" y="2460" width="340" height="330" as="geometry"/>
                </mxCell>
                <mxCell id="123" style="edgeStyle=none;html=1;fontSize=24;" edge="1" parent="1" source="122" target="126">
                    <mxGeometry relative="1" as="geometry">
                        <mxPoint x="980" y="2600" as="targetPoint"/>
                    </mxGeometry>
                </mxCell>
                <mxCell id="124" style="edgeStyle=none;html=1;exitX=1;exitY=1;exitDx=0;exitDy=0;fontSize=24;" edge="1" parent="1" source="122" target="125">
                    <mxGeometry relative="1" as="geometry">
                        <mxPoint x="1340" y="2600" as="targetPoint"/>
                    </mxGeometry>
                </mxCell>
                <mxCell id="122" value="" style="ellipse;whiteSpace=wrap;html=1;fontSize=24;" vertex="1" parent="1">
                    <mxGeometry x="1110" y="2290" width="120" height="120" as="geometry"/>
                </mxCell>
                <mxCell id="125" value="" style="ellipse;whiteSpace=wrap;html=1;aspect=fixed;fontSize=24;" vertex="1" parent="1">
                    <mxGeometry x="1315" y="2550" width="80" height="80" as="geometry"/>
                </mxCell>
                <mxCell id="126" value="" style="ellipse;whiteSpace=wrap;html=1;aspect=fixed;fontSize=24;" vertex="1" parent="1">
                    <mxGeometry x="940" y="2560" width="80" height="80" as="geometry"/>
                </mxCell>
                <mxCell id="127" value="html" style="text;html=1;strokeColor=none;fillColor=none;align=center;verticalAlign=middle;whiteSpace=wrap;rounded=0;fontSize=24;" vertex="1" parent="1">
                    <mxGeometry x="1145" y="2335" width="60" height="30" as="geometry"/>
                </mxCell>
                <mxCell id="128" value="HEAD" style="text;html=1;strokeColor=none;fillColor=none;align=center;verticalAlign=middle;whiteSpace=wrap;rounded=0;fontSize=24;" vertex="1" parent="1">
                    <mxGeometry x="950" y="2585" width="60" height="30" as="geometry"/>
                </mxCell>
                <mxCell id="129" value="BODY" style="text;html=1;strokeColor=none;fillColor=none;align=center;verticalAlign=middle;whiteSpace=wrap;rounded=0;fontSize=24;" vertex="1" parent="1">
                    <mxGeometry x="1330" y="2575" width="60" height="30" as="geometry"/>
                </mxCell>
                <mxCell id="130" value="CONTINE DATELE VIZIBILE PENTRU UTILIZAGTORI" style="text;html=1;strokeColor=none;fillColor=none;align=center;verticalAlign=middle;whiteSpace=wrap;rounded=0;fontSize=24;" vertex="1" parent="1">
                    <mxGeometry x="1460" y="2570" width="60" height="30" as="geometry"/>
                </mxCell>
                <mxCell id="131" value="&lt;span style=&quot;color: rgb(240, 240, 240); font-family: Helvetica; font-size: 24px; font-style: normal; font-variant-ligatures: normal; font-variant-caps: normal; font-weight: 400; letter-spacing: normal; orphans: 2; text-align: center; text-indent: 0px; text-transform: none; widows: 2; word-spacing: 0px; -webkit-text-stroke-width: 0px; background-color: rgb(42, 37, 47); text-decoration-thickness: initial; text-decoration-style: initial; text-decoration-color: initial; float: none; display: inline !important;&quot;&gt;CONTINE DATELE INVIZIBILE PENTRU UTILIZAGTORI&lt;br&gt;&lt;br&gt;META DATA&lt;br&gt;&lt;/span&gt;" style="text;whiteSpace=wrap;html=1;fontSize=24;" vertex="1" parent="1">
                    <mxGeometry x="580" y="2490" width="560" height="80" as="geometry"/>
                </mxCell>
            </root>
        </mxGraphModel>
    </diagram>
</mxfile>